# Blender v3.3.1 OBJ File: 'quadro 50x70.blend'
# www.blender.org
mtllib quadro 50x70.mtl
o Cubo
v -7.203281 3.996955 0.742608
v -7.080464 4.463614 0.931378
v -0.511359 13.455465 -7.115812
v -0.644770 13.559965 -6.626149
v 0.667336 3.539541 6.894368
v 0.488793 4.023715 6.847593
v 7.359259 12.998052 -0.964052
v 6.924487 13.120066 -0.709935
v -7.359259 4.291291 0.964052
v -0.667336 13.749802 -6.894368
v 7.203281 13.292388 -0.742608
v 0.511359 3.833878 7.115812
v -7.047551 4.401504 0.884650
v -0.611857 13.497854 -6.672877
v 6.957401 13.057955 -0.756663
v 0.521707 3.961605 6.800864
vt 0.996713 0.997043
vt 0.008569 0.997043
vt 0.008569 0.001001
vt 0.996713 0.001001
vt 0.375000 0.000000
vt 0.625000 0.000000
vt 0.625000 0.250000
vt 0.375000 0.250000
vt 0.625000 0.500000
vt 0.375000 0.500000
vt 0.625000 0.750000
vt 0.375000 0.750000
vt 0.625000 1.000000
vt 0.375000 1.000000
vt 0.403697 0.060930
vt 0.404752 0.941185
vt 0.290631 0.942882
vt 0.289575 0.062627
vt 0.629786 0.745214
vt 0.629786 0.504786
vt 0.629786 0.504786
vt 0.629786 0.745214
vt 0.817758 0.618518
vt 0.927505 0.620997
vt 0.929640 0.631531
vt 0.815524 0.628953
vt 0.751726 0.765721
vt 0.746089 0.239177
vt 0.748161 0.228583
vt 0.754023 0.776090
vt 0.682256 0.630890
vt 0.572505 0.629594
vt 0.570346 0.619084
vt 0.684466 0.620432
vt 0.749807 0.107277
vt 0.752378 0.633934
vt 0.750245 0.644470
vt 0.747571 0.096844
vt 0.870214 0.504786
vt 0.870214 0.745214
vt 0.870214 0.745214
vt 0.870214 0.504786
vn -0.3899 0.7358 0.5536
vn -0.7871 0.0457 -0.6152
vn 0.4780 0.6756 -0.5613
vn 0.7871 -0.0457 0.6152
vn -0.4780 -0.6756 0.5613
vn 0.3899 -0.7358 -0.5536
usemtl Materiais.001
s off
f 15/1/1 14/2/1 13/3/1 16/4/1
usemtl Materiais.002
f 1/5/2 9/6/2 10/7/2 3/8/2
f 3/8/3 10/7/3 11/9/3 7/10/3
f 7/10/4 11/9/4 12/11/4 5/12/4
f 5/12/5 12/11/5 9/13/5 1/14/5
f 3/15/6 7/16/6 5/17/6 1/18/6
f 6/19/2 8/20/2 15/21/2 16/22/2
f 2/23/1 4/24/1 10/25/1 9/26/1
f 4/27/1 8/28/1 11/29/1 10/30/1
f 8/31/1 6/32/1 12/33/1 11/34/1
f 6/35/1 2/36/1 9/37/1 12/38/1
f 4/39/4 2/40/4 13/41/4 14/42/4
f 2/40/3 6/19/3 16/22/3 13/41/3
f 8/20/5 4/39/5 14/42/5 15/21/5
